<svg xmlns="http://www.w3.org/2000/svg" xmlns:xlink="http://www.w3.org/1999/xlink" version="1.1" width="256" height="256" viewBox="0 0 256 256" xml:space="preserve">
<desc>Created with Fabric.js 1.7.22</desc>
<defs>
</defs>
<g transform="translate(128 128) scale(1.66 1.66)" style="">
	<g style="stroke: none; stroke-width: 0; stroke-dasharray: none; stroke-linecap: butt; stroke-linejoin: miter; stroke-miterlimit: 10; fill: none; fill-rule: nonzero; opacity: 1;" transform="translate(-76.04999999999998 -76.05) scale(1.69 1.69)" >
	<path d="M 46.792 90 c -3.908 0 -7.841 -0.514 -11.717 -1.552 c -11.607 -3.11 -21.309 -10.555 -27.317 -20.961 s -7.604 -22.53 -4.494 -34.137 c 3.11 -11.607 10.554 -21.309 20.961 -27.317 C 32.827 1.066 42.58 -0.89 52.417 0.374 c 0.419 0.054 0.76 0.365 0.849 0.777 c 0.091 0.412 -0.088 0.837 -0.445 1.062 c -15.589 9.766 -20.593 29.899 -11.392 45.835 l 0 0 C 50.63 63.985 70.57 69.716 86.819 61.099 c 0.372 -0.196 0.83 -0.141 1.142 0.145 c 0.312 0.284 0.412 0.734 0.249 1.124 c -3.827 9.156 -10.396 16.619 -18.998 21.586 C 62.281 87.956 54.588 90 46.792 90 z M 46.609 2 c -7.486 0 -14.787 1.956 -21.384 5.765 C 15.281 13.506 8.168 22.776 5.196 33.867 S 3.749 56.543 9.49 66.487 c 5.741 9.945 15.011 17.058 26.102 20.03 c 11.092 2.971 22.676 1.448 32.62 -4.295 c 7.426 -4.287 13.267 -10.523 17.022 -18.139 c -16.701 7.295 -36.267 1.021 -45.538 -15.036 s -4.921 -36.139 9.747 -46.954 C 48.497 2.03 47.551 2 46.609 2 z" style="stroke: none; stroke-width: 1; stroke-dasharray: none; stroke-linecap: butt; stroke-linejoin: miter; stroke-miterlimit: 10; fill: rgb(255,255,255); fill-rule: nonzero; opacity: 1;" transform=" matrix(1 0 0 1 0 0) " stroke-linecap="round" />
</g>
</g>
</svg>