<svg xmlns="http://www.w3.org/2000/svg" xmlns:xlink="http://www.w3.org/1999/xlink" version="1.1" width="256" height="256" viewBox="0 0 256 256" xml:space="preserve">
<desc>Created with Fabric.js 1.7.22</desc>
<defs>
</defs>
<g transform="translate(128 128) scale(1.18 1.18)" style="">
	<g style="stroke: none; stroke-width: 0; stroke-dasharray: none; stroke-linecap: butt; stroke-linejoin: miter; stroke-miterlimit: 10; fill: none; fill-rule: nonzero; opacity: 1;" transform="translate(-107.55000000000001 -107.55000000000001) scale(2.39 2.39)" >
	<path d="M 45 70.75 c -14.199 0 -25.75 -11.552 -25.75 -25.75 c 0 -14.199 11.551 -25.75 25.75 -25.75 c 14.198 0 25.75 11.551 25.75 25.75 c 0 4.645 -1.251 9.197 -3.616 13.167 C 62.506 65.929 54.025 70.75 45 70.75 z M 45 21.25 c -13.096 0 -23.75 10.654 -23.75 23.75 S 31.904 68.75 45 68.75 c 8.324 0 16.147 -4.447 20.415 -11.606 c 2.182 -3.66 3.335 -7.859 3.335 -12.144 C 68.75 31.904 58.096 21.25 45 21.25 z" style="stroke: none; stroke-width: 1; stroke-dasharray: none; stroke-linecap: butt; stroke-linejoin: miter; stroke-miterlimit: 10; fill: rgb(255,255,255); fill-rule: nonzero; opacity: 1;" transform=" matrix(1 0 0 1 0 0) " stroke-linecap="round" />
	<path d="M 45 13.116 c -0.552 0 -1 -0.448 -1 -1 V 1 c 0 -0.552 0.448 -1 1 -1 s 1 0.448 1 1 v 11.116 C 46 12.668 45.552 13.116 45 13.116 z" style="stroke: none; stroke-width: 1; stroke-dasharray: none; stroke-linecap: butt; stroke-linejoin: miter; stroke-miterlimit: 10; fill: rgb(255,255,255); fill-rule: nonzero; opacity: 1;" transform=" matrix(1 0 0 1 0 0) " stroke-linecap="round" />
	<path d="M 45 90 c -0.552 0 -1 -0.447 -1 -1 V 77.884 c 0 -0.553 0.448 -1 1 -1 s 1 0.447 1 1 V 89 C 46 89.553 45.552 90 45 90 z" style="stroke: none; stroke-width: 1; stroke-dasharray: none; stroke-linecap: butt; stroke-linejoin: miter; stroke-miterlimit: 10; fill: rgb(255,255,255); fill-rule: nonzero; opacity: 1;" transform=" matrix(1 0 0 1 0 0) " stroke-linecap="round" />
	<path d="M 12.116 46 H 1 c -0.552 0 -1 -0.448 -1 -1 s 0.448 -1 1 -1 h 11.116 c 0.552 0 1 0.448 1 1 S 12.668 46 12.116 46 z" style="stroke: none; stroke-width: 1; stroke-dasharray: none; stroke-linecap: butt; stroke-linejoin: miter; stroke-miterlimit: 10; fill: rgb(255,255,255); fill-rule: nonzero; opacity: 1;" transform=" matrix(1 0 0 1 0 0) " stroke-linecap="round" />
	<path d="M 89 46 H 77.884 c -0.553 0 -1 -0.448 -1 -1 s 0.447 -1 1 -1 H 89 c 0.553 0 1 0.448 1 1 S 89.553 46 89 46 z" style="stroke: none; stroke-width: 1; stroke-dasharray: none; stroke-linecap: butt; stroke-linejoin: miter; stroke-miterlimit: 10; fill: rgb(255,255,255); fill-rule: nonzero; opacity: 1;" transform=" matrix(1 0 0 1 0 0) " stroke-linecap="round" />
	<path d="M 68.252 22.748 c -0.256 0 -0.512 -0.098 -0.707 -0.293 c -0.391 -0.391 -0.391 -1.023 0 -1.414 l 7.86 -7.86 c 0.391 -0.391 1.023 -0.391 1.414 0 s 0.391 1.023 0 1.414 l -7.86 7.86 C 68.764 22.65 68.508 22.748 68.252 22.748 z" style="stroke: none; stroke-width: 1; stroke-dasharray: none; stroke-linecap: butt; stroke-linejoin: miter; stroke-miterlimit: 10; fill: rgb(255,255,255); fill-rule: nonzero; opacity: 1;" transform=" matrix(1 0 0 1 0 0) " stroke-linecap="round" />
	<path d="M 13.887 77.112 c -0.256 0 -0.512 -0.098 -0.707 -0.293 c -0.391 -0.391 -0.391 -1.023 0 -1.414 l 7.86 -7.86 c 0.391 -0.391 1.023 -0.391 1.414 0 s 0.391 1.023 0 1.414 l -7.86 7.86 C 14.399 77.015 14.143 77.112 13.887 77.112 z" style="stroke: none; stroke-width: 1; stroke-dasharray: none; stroke-linecap: butt; stroke-linejoin: miter; stroke-miterlimit: 10; fill: rgb(255,255,255); fill-rule: nonzero; opacity: 1;" transform=" matrix(1 0 0 1 0 0) " stroke-linecap="round" />
	<path d="M 21.748 22.748 c -0.256 0 -0.512 -0.098 -0.707 -0.293 l -7.86 -7.86 c -0.391 -0.391 -0.391 -1.023 0 -1.414 s 1.023 -0.391 1.414 0 l 7.86 7.86 c 0.391 0.391 0.391 1.023 0 1.414 C 22.259 22.65 22.003 22.748 21.748 22.748 z" style="stroke: none; stroke-width: 1; stroke-dasharray: none; stroke-linecap: butt; stroke-linejoin: miter; stroke-miterlimit: 10; fill: rgb(255,255,255); fill-rule: nonzero; opacity: 1;" transform=" matrix(1 0 0 1 0 0) " stroke-linecap="round" />
	<path d="M 76.112 77.112 c -0.256 0 -0.512 -0.098 -0.707 -0.293 l -7.86 -7.86 c -0.391 -0.391 -0.391 -1.023 0 -1.414 s 1.023 -0.391 1.414 0 l 7.86 7.86 c 0.391 0.391 0.391 1.023 0 1.414 C 76.624 77.015 76.368 77.112 76.112 77.112 z" style="stroke: none; stroke-width: 1; stroke-dasharray: none; stroke-linecap: butt; stroke-linejoin: miter; stroke-miterlimit: 10; fill: rgb(255,255,255); fill-rule: nonzero; opacity: 1;" transform=" matrix(1 0 0 1 0 0) " stroke-linecap="round" />
	<path d="M 32.417 15.62 c -0.393 0 -0.765 -0.233 -0.924 -0.618 l -4.254 -10.27 c -0.211 -0.51 0.031 -1.095 0.541 -1.307 c 0.512 -0.211 1.095 0.031 1.307 0.541 l 4.254 10.27 c 0.211 0.51 -0.031 1.095 -0.541 1.307 C 32.673 15.595 32.544 15.62 32.417 15.62 z" style="stroke: none; stroke-width: 1; stroke-dasharray: none; stroke-linecap: butt; stroke-linejoin: miter; stroke-miterlimit: 10; fill: rgb(255,255,255); fill-rule: nonzero; opacity: 1;" transform=" matrix(1 0 0 1 0 0) " stroke-linecap="round" />
	<path d="M 61.838 86.65 c -0.392 0 -0.765 -0.232 -0.924 -0.617 l -4.254 -10.27 c -0.211 -0.511 0.031 -1.096 0.541 -1.307 c 0.509 -0.21 1.096 0.03 1.307 0.541 l 4.254 10.27 c 0.211 0.511 -0.031 1.096 -0.541 1.307 C 62.096 86.626 61.966 86.65 61.838 86.65 z" style="stroke: none; stroke-width: 1; stroke-dasharray: none; stroke-linecap: butt; stroke-linejoin: miter; stroke-miterlimit: 10; fill: rgb(255,255,255); fill-rule: nonzero; opacity: 1;" transform=" matrix(1 0 0 1 0 0) " stroke-linecap="round" />
	<path d="M 4.35 62.838 c -0.393 0 -0.765 -0.232 -0.924 -0.617 c -0.211 -0.511 0.031 -1.096 0.541 -1.307 l 10.27 -4.254 c 0.512 -0.213 1.095 0.031 1.307 0.541 c 0.211 0.511 -0.031 1.096 -0.541 1.307 l -10.27 4.254 C 4.606 62.813 4.477 62.838 4.35 62.838 z" style="stroke: none; stroke-width: 1; stroke-dasharray: none; stroke-linecap: butt; stroke-linejoin: miter; stroke-miterlimit: 10; fill: rgb(255,255,255); fill-rule: nonzero; opacity: 1;" transform=" matrix(1 0 0 1 0 0) " stroke-linecap="round" />
	<path d="M 75.381 33.417 c -0.392 0 -0.765 -0.233 -0.924 -0.618 c -0.211 -0.51 0.031 -1.095 0.541 -1.307 l 10.27 -4.254 c 0.509 -0.21 1.096 0.031 1.307 0.541 s -0.031 1.095 -0.541 1.307 l -10.27 4.254 C 75.639 33.392 75.509 33.417 75.381 33.417 z" style="stroke: none; stroke-width: 1; stroke-dasharray: none; stroke-linecap: butt; stroke-linejoin: miter; stroke-miterlimit: 10; fill: rgb(255,255,255); fill-rule: nonzero; opacity: 1;" transform=" matrix(1 0 0 1 0 0) " stroke-linecap="round" />
	<path d="M 57.584 15.62 c -0.128 0 -0.258 -0.025 -0.383 -0.077 c -0.51 -0.211 -0.752 -0.796 -0.541 -1.307 l 4.254 -10.27 c 0.211 -0.511 0.799 -0.75 1.307 -0.541 c 0.51 0.211 0.752 0.796 0.541 1.307 l -4.254 10.27 C 58.349 15.387 57.976 15.62 57.584 15.62 z" style="stroke: none; stroke-width: 1; stroke-dasharray: none; stroke-linecap: butt; stroke-linejoin: miter; stroke-miterlimit: 10; fill: rgb(255,255,255); fill-rule: nonzero; opacity: 1;" transform=" matrix(1 0 0 1 0 0) " stroke-linecap="round" />
	<path d="M 28.162 86.65 c -0.127 0 -0.257 -0.024 -0.382 -0.076 c -0.51 -0.211 -0.752 -0.796 -0.541 -1.307 l 4.254 -10.27 c 0.211 -0.51 0.793 -0.752 1.307 -0.541 c 0.51 0.211 0.752 0.796 0.541 1.307 l -4.254 10.27 C 28.926 86.418 28.554 86.65 28.162 86.65 z" style="stroke: none; stroke-width: 1; stroke-dasharray: none; stroke-linecap: butt; stroke-linejoin: miter; stroke-miterlimit: 10; fill: rgb(255,255,255); fill-rule: nonzero; opacity: 1;" transform=" matrix(1 0 0 1 0 0) " stroke-linecap="round" />
	<path d="M 14.619 33.417 c -0.127 0 -0.257 -0.025 -0.382 -0.077 l -10.27 -4.254 c -0.51 -0.211 -0.752 -0.796 -0.541 -1.307 c 0.211 -0.51 0.793 -0.753 1.307 -0.541 l 10.27 4.254 c 0.51 0.211 0.752 0.796 0.541 1.307 C 15.383 33.184 15.011 33.417 14.619 33.417 z" style="stroke: none; stroke-width: 1; stroke-dasharray: none; stroke-linecap: butt; stroke-linejoin: miter; stroke-miterlimit: 10; fill: rgb(255,255,255); fill-rule: nonzero; opacity: 1;" transform=" matrix(1 0 0 1 0 0) " stroke-linecap="round" />
	<path d="M 85.65 62.838 c -0.128 0 -0.258 -0.024 -0.383 -0.076 l -10.27 -4.254 c -0.51 -0.211 -0.752 -0.796 -0.541 -1.307 s 0.8 -0.751 1.307 -0.541 l 10.27 4.254 c 0.51 0.211 0.752 0.796 0.541 1.307 C 86.415 62.605 86.042 62.838 85.65 62.838 z" style="stroke: none; stroke-width: 1; stroke-dasharray: none; stroke-linecap: butt; stroke-linejoin: miter; stroke-miterlimit: 10; fill: rgb(255,255,255); fill-rule: nonzero; opacity: 1;" transform=" matrix(1 0 0 1 0 0) " stroke-linecap="round" />
</g>
</g>
</svg>