<svg xmlns="http://www.w3.org/2000/svg" xmlns:xlink="http://www.w3.org/1999/xlink" version="1.1" width="256" height="256" viewBox="0 0 256 256" xml:space="preserve">
<desc>Created with Fabric.js 1.7.22</desc>
<defs>
</defs>
<g transform="translate(128 128) scale(1.89 1.89)" style="">
	<g style="stroke: none; stroke-width: 0; stroke-dasharray: none; stroke-linecap: butt; stroke-linejoin: miter; stroke-miterlimit: 10; fill: none; fill-rule: nonzero; opacity: 1;" transform="translate(-67.05 -67.05) scale(1.49 1.49)" >
	<path d="M 45 90 c -17.09 0 -30.995 -13.904 -30.995 -30.995 c 0 -7.483 2.704 -14.709 7.613 -20.347 c 0.12 -0.137 0.243 -0.269 0.366 -0.401 l 0.081 -0.087 c 0.025 -0.031 0.05 -0.062 0.077 -0.092 C 32.141 27.16 39.155 15.044 43.585 1.036 C 43.78 0.419 44.353 0 45 0 s 1.219 0.419 1.414 1.036 c 4.431 14.008 11.445 26.125 21.443 37.042 c 0.069 0.075 0.128 0.156 0.18 0.242 c 5.134 5.712 7.958 13.045 7.958 20.685 C 75.995 76.096 62.091 90 45 90 z M 24.422 39.982 c -0.026 0.035 -0.054 0.068 -0.084 0.1 l -0.185 0.2 c -0.1 0.108 -0.201 0.215 -0.298 0.326 c -4.438 5.096 -6.883 11.63 -6.883 18.397 c 0 15.454 12.573 28.028 28.028 28.028 c 15.455 0 28.028 -12.573 28.028 -28.028 c 0 -7.004 -2.627 -13.725 -7.397 -18.922 c -0.068 -0.074 -0.127 -0.155 -0.179 -0.239 C 56.274 29.764 49.554 18.687 45 6.106 C 40.425 18.744 33.665 29.864 24.422 39.982 z" style="stroke: none; stroke-width: 1; stroke-dasharray: none; stroke-linecap: butt; stroke-linejoin: miter; stroke-miterlimit: 10; fill: rgb(255,255,255); fill-rule: nonzero; opacity: 1;" transform=" matrix(1 0 0 1 0 0) " stroke-linecap="round" />
</g>
</g>
</svg>